<svg data-v-423bf9ae="" xmlns="http://www.w3.org/2000/svg" viewBox="0 0 461 90" class="iconLeft"><!----><!----><!----><g data-v-423bf9ae="" id="e57c378a-746b-48cc-9e9c-0be845164307" fill="#7899B3" transform="matrix(5.04201656428025,0,0,5.04201656428025,112.6446580490097,-1.3361320474223746)"><path d="M10.51 8.46C10.51 5.75 8.53 3.59 5.57 3.59C2.60 3.59 0.63 5.75 0.63 8.46C0.63 11.00 2.35 13.05 5.00 13.31L9.61 15.14L10.16 13.77L7.53 12.99C9.38 12.26 10.51 10.51 10.51 8.46ZM2.17 8.46C2.17 6.53 3.49 4.91 5.57 4.91C7.66 4.91 8.97 6.53 8.97 8.46C8.97 10.37 7.66 12.02 5.57 12.02C3.49 12.02 2.17 10.37 2.17 8.46ZM14.89 13.33C16.33 13.33 17.85 12.67 17.85 10.31L17.85 6.53L16.44 6.53L16.44 10.32C16.44 11.43 15.90 12.12 14.89 12.12C13.88 12.12 13.34 11.43 13.34 10.32L13.34 6.53L11.93 6.53L11.93 10.31C11.93 12.67 13.45 13.33 14.89 13.33ZM20.37 5.26C20.88 5.26 21.29 4.86 21.29 4.36C21.29 3.86 20.88 3.46 20.37 3.46C19.88 3.46 19.47 3.86 19.47 4.36C19.47 4.86 19.88 5.26 20.37 5.26ZM19.70 13.15L21.09 13.15L21.09 6.53L19.70 6.53ZM24.35 11.94L28.06 7.58L28.06 6.53L22.75 6.53L22.75 7.74L26.26 7.74L22.53 12.16L22.53 13.15L28.31 13.15L28.31 11.94ZM34.27 13.34C37.23 13.34 39.21 11.17 39.21 8.46C39.21 5.75 37.23 3.59 34.27 3.59C31.30 3.59 29.33 5.75 29.33 8.46C29.33 11.17 31.30 13.34 34.27 13.34ZM34.27 12.02C32.19 12.02 30.87 10.37 30.87 8.46C30.87 6.53 32.19 4.91 34.27 4.91C36.36 4.91 37.67 6.53 37.67 8.46C37.67 10.37 36.36 12.02 34.27 12.02ZM44.14 6.36C43.21 6.36 42.51 6.75 42.10 7.32L41.93 6.53L40.69 6.53L40.69 13.15L42.10 13.15L42.10 9.11C42.22 7.95 43.01 7.57 43.75 7.57C44.77 7.57 45.21 8.30 45.21 9.38L45.21 13.15L46.62 13.15L46.62 9.06C46.62 7 45.30 6.36 44.14 6.36ZM48.36 13.15L49.77 13.15L49.77 3.24L48.36 3.24ZM52.43 5.26C52.94 5.26 53.35 4.86 53.35 4.36C53.35 3.86 52.94 3.46 52.43 3.46C51.93 3.46 51.52 3.86 51.52 4.36C51.52 4.86 51.93 5.26 52.43 5.26ZM51.76 13.15L53.14 13.15L53.14 6.53L51.76 6.53ZM58.52 6.36C57.59 6.36 56.89 6.75 56.48 7.32L56.31 6.53L55.07 6.53L55.07 13.15L56.48 13.15L56.48 9.11C56.60 7.95 57.39 7.57 58.13 7.57C59.15 7.57 59.59 8.30 59.59 9.38L59.59 13.15L61.00 13.15L61.00 9.06C61.00 7 59.67 6.36 58.52 6.36ZM68.98 9.70C68.98 7.73 67.65 6.36 65.73 6.36C63.74 6.36 62.31 7.89 62.31 9.84C62.31 11.80 63.73 13.31 65.90 13.31C67.04 13.31 68.00 12.92 68.60 12.25L67.62 11.46C67.20 11.94 66.63 12.19 65.89 12.19C64.65 12.19 63.90 11.33 63.80 10.15L68.98 10.15ZM65.73 7.50C66.76 7.50 67.43 8.12 67.58 9.17L63.86 9.17C64.06 8.17 64.75 7.50 65.73 7.50Z"></path></g><!----><g data-v-423bf9ae="" id="27c90546-7d2c-408a-bf07-0a0e5a0d0836" transform="matrix(2.994410458179972,0,0,2.994410458179972,0.08943266912044834,-1.9385669710569857)" stroke="none" fill="#7899B3"><path d="M17.572 23.933l4.106 7.095L32 13.189h-8.981V7.582L11.51.972 0 7.582v13.222l11.51 6.611 6.062-3.482zm10.96-8.744l-6.855 11.846-6.855-11.846h13.71z"></path></g><!----></svg>